solid ascii
  facet normal 9.781476e-001 -2.079117e-001 0.000000e+000
    outer loop
      vertex   -3.538033e+001 5.272040e+001 7.000000e-001
      vertex   -3.538033e+001 5.272040e+001 3.873766e-015
      vertex   -3.533680e+001 5.292517e+001 7.000000e-001
    endloop
  endfacet
  facet normal 9.945219e-001 -1.045285e-001 0.000000e+000
    outer loop
      vertex   -3.538033e+001 5.272040e+001 7.000000e-001
      vertex   -3.540221e+001 5.251221e+001 7.000000e-001
      vertex   -3.538033e+001 5.272040e+001 3.873766e-015
    endloop
  endfacet
  facet normal 9.945219e-001 -1.045285e-001 0.000000e+000
    outer loop
      vertex   -3.538033e+001 5.272040e+001 3.873766e-015
      vertex   -3.540221e+001 5.251221e+001 7.000000e-001
      vertex   -3.540221e+001 5.251221e+001 3.861883e-015
    endloop
  endfacet
  facet normal 1.000000e+000 0.000000e+000 -0.000000e+000
    outer loop
      vertex   -3.540221e+001 5.251221e+001 3.861883e-015
      vertex   -3.540221e+001 5.251221e+001 7.000000e-001
      vertex   -3.540221e+001 5.230286e+001 7.000000e-001
    endloop
  endfacet
  facet normal 9.945219e-001 1.045285e-001 -0.000000e+000
    outer loop
      vertex   -3.540221e+001 5.230286e+001 3.850263e-015
      vertex   -3.540221e+001 5.230286e+001 7.000000e-001
      vertex   -3.538033e+001 5.209467e+001 7.000000e-001
    endloop
  endfacet
  facet normal 9.781476e-001 2.079117e-001 -0.000000e+000
    outer loop
      vertex   -3.538033e+001 5.209467e+001 3.839031e-015
      vertex   -3.538033e+001 5.209467e+001 7.000000e-001
      vertex   -3.533680e+001 5.188990e+001 7.000000e-001
    endloop
  endfacet
  facet normal 9.510565e-001 3.090170e-001 -0.000000e+000
    outer loop
      vertex   -3.533680e+001 5.188990e+001 3.828311e-015
      vertex   -3.533680e+001 5.188990e+001 7.000000e-001
      vertex   -3.527211e+001 5.169080e+001 7.000000e-001
    endloop
  endfacet
  facet normal 9.135455e-001 4.067366e-001 -0.000000e+000
    outer loop
      vertex   -3.527211e+001 5.169080e+001 3.818221e-015
      vertex   -3.527211e+001 5.169080e+001 7.000000e-001
      vertex   -3.518696e+001 5.149955e+001 7.000000e-001
    endloop
  endfacet
  facet normal 8.660254e-001 5.000000e-001 -8.790687e-015
    outer loop
      vertex   -3.518696e+001 5.149955e+001 3.808872e-015
      vertex   -3.518696e+001 5.149955e+001 7.000000e-001
      vertex   -3.508229e+001 5.131826e+001 7.000000e-001
    endloop
  endfacet
  facet normal 8.090170e-001 5.877853e-001 -0.000000e+000
    outer loop
      vertex   -3.508229e+001 5.131826e+001 3.800364e-015
      vertex   -3.508229e+001 5.131826e+001 7.000000e-001
      vertex   -3.495924e+001 5.114889e+001 7.000000e-001
    endloop
  endfacet
  facet normal 7.431448e-001 6.691306e-001 -0.000000e+000
    outer loop
      vertex   -3.495924e+001 5.114889e+001 3.792793e-015
      vertex   -3.495924e+001 5.114889e+001 7.000000e-001
      vertex   -3.481916e+001 5.099332e+001 7.000000e-001
    endloop
  endfacet
  facet normal 6.691306e-001 7.431448e-001 -0.000000e+000
    outer loop
      vertex   -3.481916e+001 5.099332e+001 3.786241e-015
      vertex   -3.481916e+001 5.099332e+001 7.000000e-001
      vertex   -3.466359e+001 5.085324e+001 7.000000e-001
    endloop
  endfacet
  facet normal 5.877853e-001 8.090170e-001 -0.000000e+000
    outer loop
      vertex   -3.466359e+001 5.085324e+001 3.780779e-015
      vertex   -3.466359e+001 5.085324e+001 7.000000e-001
      vertex   -3.449423e+001 5.073019e+001 7.000000e-001
    endloop
  endfacet
  facet normal 5.000000e-001 8.660254e-001 -0.000000e+000
    outer loop
      vertex   -3.449423e+001 5.073019e+001 3.776467e-015
      vertex   -3.449423e+001 5.073019e+001 7.000000e-001
      vertex   -3.431293e+001 5.062552e+001 7.000000e-001
    endloop
  endfacet
  facet normal 4.067366e-001 9.135455e-001 -0.000000e+000
    outer loop
      vertex   -3.431293e+001 5.062552e+001 3.773354e-015
      vertex   -3.431293e+001 5.062552e+001 7.000000e-001
      vertex   -3.412169e+001 5.054037e+001 7.000000e-001
    endloop
  endfacet
  facet normal 3.090170e-001 9.510565e-001 -0.000000e+000
    outer loop
      vertex   -3.412169e+001 5.054037e+001 3.771471e-015
      vertex   -3.412169e+001 5.054037e+001 7.000000e-001
      vertex   -3.392259e+001 5.047568e+001 7.000000e-001
    endloop
  endfacet
  facet normal 2.079117e-001 9.781476e-001 -0.000000e+000
    outer loop
      vertex   -3.392259e+001 5.047568e+001 3.770842e-015
      vertex   -3.392259e+001 5.047568e+001 7.000000e-001
      vertex   -3.371782e+001 5.043216e+001 7.000000e-001
    endloop
  endfacet
  facet normal 1.045285e-001 9.945219e-001 -0.000000e+000
    outer loop
      vertex   -3.371782e+001 5.043216e+001 3.771471e-015
      vertex   -3.371782e+001 5.043216e+001 7.000000e-001
      vertex   -3.350962e+001 5.041028e+001 7.000000e-001
    endloop
  endfacet
  facet normal 0.000000e+000 1.000000e+000 0.000000e+000
    outer loop
      vertex   -3.350962e+001 5.041028e+001 3.773354e-015
      vertex   -3.350962e+001 5.041028e+001 7.000000e-001
      vertex   -3.330028e+001 5.041028e+001 7.000000e-001
    endloop
  endfacet
  facet normal -1.045285e-001 9.945219e-001 0.000000e+000
    outer loop
      vertex   -3.330028e+001 5.041028e+001 3.776467e-015
      vertex   -3.330028e+001 5.041028e+001 7.000000e-001
      vertex   -3.309208e+001 5.043216e+001 7.000000e-001
    endloop
  endfacet
  facet normal -2.079117e-001 9.781476e-001 0.000000e+000
    outer loop
      vertex   -3.309208e+001 5.043216e+001 3.780779e-015
      vertex   -3.309208e+001 5.043216e+001 7.000000e-001
      vertex   -3.288731e+001 5.047568e+001 7.000000e-001
    endloop
  endfacet
  facet normal -3.090170e-001 9.510565e-001 0.000000e+000
    outer loop
      vertex   -3.288731e+001 5.047568e+001 3.786241e-015
      vertex   -3.288731e+001 5.047568e+001 7.000000e-001
      vertex   -3.268821e+001 5.054037e+001 7.000000e-001
    endloop
  endfacet
  facet normal -4.067366e-001 9.135455e-001 0.000000e+000
    outer loop
      vertex   -3.268821e+001 5.054037e+001 3.792793e-015
      vertex   -3.268821e+001 5.054037e+001 7.000000e-001
      vertex   -3.249697e+001 5.062552e+001 7.000000e-001
    endloop
  endfacet
  facet normal -5.000000e-001 8.660254e-001 0.000000e+000
    outer loop
      vertex   -3.249697e+001 5.062552e+001 3.800364e-015
      vertex   -3.249697e+001 5.062552e+001 7.000000e-001
      vertex   -3.231567e+001 5.073019e+001 7.000000e-001
    endloop
  endfacet
  facet normal -5.877853e-001 8.090170e-001 0.000000e+000
    outer loop
      vertex   -3.231567e+001 5.073019e+001 3.808872e-015
      vertex   -3.231567e+001 5.073019e+001 7.000000e-001
      vertex   -3.214631e+001 5.085324e+001 7.000000e-001
    endloop
  endfacet
  facet normal -6.691306e-001 7.431448e-001 0.000000e+000
    outer loop
      vertex   -3.214631e+001 5.085324e+001 3.818221e-015
      vertex   -3.214631e+001 5.085324e+001 7.000000e-001
      vertex   -3.199074e+001 5.099332e+001 7.000000e-001
    endloop
  endfacet
  facet normal -7.431448e-001 6.691306e-001 0.000000e+000
    outer loop
      vertex   -3.199074e+001 5.099332e+001 3.828311e-015
      vertex   -3.199074e+001 5.099332e+001 7.000000e-001
      vertex   -3.185066e+001 5.114889e+001 7.000000e-001
    endloop
  endfacet
  facet normal -8.090170e-001 5.877853e-001 4.106008e-015
    outer loop
      vertex   -3.185066e+001 5.114889e+001 3.839031e-015
      vertex   -3.185066e+001 5.114889e+001 7.000000e-001
      vertex   -3.172761e+001 5.131826e+001 7.000000e-001
    endloop
  endfacet
  facet normal -8.660254e-001 5.000000e-001 0.000000e+000
    outer loop
      vertex   -3.172761e+001 5.131826e+001 3.850263e-015
      vertex   -3.172761e+001 5.131826e+001 7.000000e-001
      vertex   -3.162294e+001 5.149955e+001 7.000000e-001
    endloop
  endfacet
  facet normal -9.135455e-001 4.067366e-001 0.000000e+000
    outer loop
      vertex   -3.162294e+001 5.149955e+001 3.861883e-015
      vertex   -3.162294e+001 5.149955e+001 7.000000e-001
      vertex   -3.153779e+001 5.169080e+001 7.000000e-001
    endloop
  endfacet
  facet normal -9.510565e-001 3.090170e-001 0.000000e+000
    outer loop
      vertex   -3.153779e+001 5.169080e+001 3.873766e-015
      vertex   -3.153779e+001 5.169080e+001 7.000000e-001
      vertex   -3.147310e+001 5.188990e+001 7.000000e-001
    endloop
  endfacet
  facet normal -9.781476e-001 2.079117e-001 0.000000e+000
    outer loop
      vertex   -3.147310e+001 5.188990e+001 3.885781e-015
      vertex   -3.147310e+001 5.188990e+001 7.000000e-001
      vertex   -3.142957e+001 5.209467e+001 7.000000e-001
    endloop
  endfacet
  facet normal -9.945219e-001 1.045285e-001 5.047502e-015
    outer loop
      vertex   -3.142957e+001 5.209467e+001 3.897795e-015
      vertex   -3.142957e+001 5.209467e+001 7.000000e-001
      vertex   -3.140769e+001 5.230286e+001 7.000000e-001
    endloop
  endfacet
  facet normal -1.000000e+000 1.697071e-014 0.000000e+000
    outer loop
      vertex   -3.140769e+001 5.230286e+001 3.909678e-015
      vertex   -3.140769e+001 5.230286e+001 7.000000e-001
      vertex   -3.140769e+001 5.251221e+001 7.000000e-001
    endloop
  endfacet
  facet normal -9.945219e-001 -1.045285e-001 0.000000e+000
    outer loop
      vertex   -3.140769e+001 5.251221e+001 3.921299e-015
      vertex   -3.140769e+001 5.251221e+001 7.000000e-001
      vertex   -3.142957e+001 5.272040e+001 7.000000e-001
    endloop
  endfacet
  facet normal -9.781476e-001 -2.079117e-001 -4.964398e-015
    outer loop
      vertex   -3.142957e+001 5.272040e+001 3.932530e-015
      vertex   -3.142957e+001 5.272040e+001 7.000000e-001
      vertex   -3.147310e+001 5.292517e+001 7.000000e-001
    endloop
  endfacet
  facet normal -9.510565e-001 -3.090170e-001 0.000000e+000
    outer loop
      vertex   -3.147310e+001 5.292517e+001 3.943250e-015
      vertex   -3.147310e+001 5.292517e+001 7.000000e-001
      vertex   -3.153779e+001 5.312427e+001 7.000000e-001
    endloop
  endfacet
  facet normal -9.135455e-001 -4.067366e-001 0.000000e+000
    outer loop
      vertex   -3.153779e+001 5.312427e+001 3.953340e-015
      vertex   -3.153779e+001 5.312427e+001 7.000000e-001
      vertex   -3.162294e+001 5.331552e+001 7.000000e-001
    endloop
  endfacet
  facet normal -8.660254e-001 -5.000000e-001 0.000000e+000
    outer loop
      vertex   -3.162294e+001 5.331552e+001 3.962690e-015
      vertex   -3.162294e+001 5.331552e+001 7.000000e-001
      vertex   -3.172761e+001 5.349681e+001 7.000000e-001
    endloop
  endfacet
  facet normal -8.090170e-001 -5.877853e-001 0.000000e+000
    outer loop
      vertex   -3.172761e+001 5.349681e+001 3.971197e-015
      vertex   -3.172761e+001 5.349681e+001 7.000000e-001
      vertex   -3.185066e+001 5.366618e+001 7.000000e-001
    endloop
  endfacet
  facet normal -7.431448e-001 -6.691306e-001 0.000000e+000
    outer loop
      vertex   -3.185066e+001 5.366618e+001 3.978768e-015
      vertex   -3.185066e+001 5.366618e+001 7.000000e-001
      vertex   -3.199074e+001 5.382175e+001 7.000000e-001
    endloop
  endfacet
  facet normal -6.691306e-001 -7.431448e-001 0.000000e+000
    outer loop
      vertex   -3.199074e+001 5.382175e+001 3.985320e-015
      vertex   -3.199074e+001 5.382175e+001 7.000000e-001
      vertex   -3.214631e+001 5.396183e+001 7.000000e-001
    endloop
  endfacet
  facet normal -5.877853e-001 -8.090170e-001 0.000000e+000
    outer loop
      vertex   -3.214631e+001 5.396183e+001 3.990782e-015
      vertex   -3.214631e+001 5.396183e+001 7.000000e-001
      vertex   -3.231567e+001 5.408488e+001 7.000000e-001
    endloop
  endfacet
  facet normal -5.000000e-001 -8.660254e-001 0.000000e+000
    outer loop
      vertex   -3.231567e+001 5.408488e+001 3.995094e-015
      vertex   -3.231567e+001 5.408488e+001 7.000000e-001
      vertex   -3.249697e+001 5.418955e+001 7.000000e-001
    endloop
  endfacet
  facet normal -4.067366e-001 -9.135455e-001 0.000000e+000
    outer loop
      vertex   -3.249697e+001 5.418955e+001 3.998208e-015
      vertex   -3.249697e+001 5.418955e+001 7.000000e-001
      vertex   -3.268821e+001 5.427470e+001 7.000000e-001
    endloop
  endfacet
  facet normal -3.090170e-001 -9.510565e-001 9.653804e-015
    outer loop
      vertex   -3.268821e+001 5.427470e+001 4.000090e-015
      vertex   -3.268821e+001 5.427470e+001 7.000000e-001
      vertex   -3.288731e+001 5.433939e+001 7.000000e-001
    endloop
  endfacet
  facet normal -2.079117e-001 -9.781476e-001 0.000000e+000
    outer loop
      vertex   -3.288731e+001 5.433939e+001 4.000719e-015
      vertex   -3.288731e+001 5.433939e+001 7.000000e-001
      vertex   -3.309208e+001 5.438291e+001 7.000000e-001
    endloop
  endfacet
  facet normal -1.045285e-001 -9.945219e-001 0.000000e+000
    outer loop
      vertex   -3.309208e+001 5.438291e+001 4.000090e-015
      vertex   -3.309208e+001 5.438291e+001 7.000000e-001
      vertex   -3.330028e+001 5.440479e+001 7.000000e-001
    endloop
  endfacet
  facet normal 0.000000e+000 -1.000000e+000 0.000000e+000
    outer loop
      vertex   -3.330028e+001 5.440479e+001 3.998208e-015
      vertex   -3.330028e+001 5.440479e+001 7.000000e-001
      vertex   -3.350962e+001 5.440479e+001 7.000000e-001
    endloop
  endfacet
  facet normal 1.045285e-001 -9.945219e-001 0.000000e+000
    outer loop
      vertex   -3.350962e+001 5.440479e+001 3.995094e-015
      vertex   -3.350962e+001 5.440479e+001 7.000000e-001
      vertex   -3.371782e+001 5.438291e+001 7.000000e-001
    endloop
  endfacet
  facet normal 2.079117e-001 -9.781476e-001 0.000000e+000
    outer loop
      vertex   -3.371782e+001 5.438291e+001 3.990782e-015
      vertex   -3.371782e+001 5.438291e+001 7.000000e-001
      vertex   -3.392259e+001 5.433939e+001 7.000000e-001
    endloop
  endfacet
  facet normal 3.090170e-001 -9.510565e-001 3.136711e-015
    outer loop
      vertex   -3.392259e+001 5.433939e+001 3.985320e-015
      vertex   -3.392259e+001 5.433939e+001 7.000000e-001
      vertex   -3.412169e+001 5.427470e+001 7.000000e-001
    endloop
  endfacet
  facet normal 4.067366e-001 -9.135455e-001 0.000000e+000
    outer loop
      vertex   -3.412169e+001 5.427470e+001 3.978768e-015
      vertex   -3.412169e+001 5.427470e+001 7.000000e-001
      vertex   -3.431293e+001 5.418955e+001 7.000000e-001
    endloop
  endfacet
  facet normal 5.000000e-001 -8.660254e-001 5.075305e-015
    outer loop
      vertex   -3.431293e+001 5.418955e+001 3.971197e-015
      vertex   -3.431293e+001 5.418955e+001 7.000000e-001
      vertex   -3.449423e+001 5.408488e+001 7.000000e-001
    endloop
  endfacet
  facet normal 5.877853e-001 -8.090170e-001 0.000000e+000
    outer loop
      vertex   -3.449423e+001 5.408488e+001 3.962690e-015
      vertex   -3.449423e+001 5.408488e+001 7.000000e-001
      vertex   -3.466359e+001 5.396183e+001 7.000000e-001
    endloop
  endfacet
  facet normal 6.691306e-001 -7.431448e-001 0.000000e+000
    outer loop
      vertex   -3.466359e+001 5.396183e+001 3.953340e-015
      vertex   -3.466359e+001 5.396183e+001 7.000000e-001
      vertex   -3.481916e+001 5.382175e+001 7.000000e-001
    endloop
  endfacet
  facet normal 7.431448e-001 -6.691306e-001 7.543374e-015
    outer loop
      vertex   -3.481916e+001 5.382175e+001 3.943250e-015
      vertex   -3.481916e+001 5.382175e+001 7.000000e-001
      vertex   -3.495924e+001 5.366618e+001 7.000000e-001
    endloop
  endfacet
  facet normal 8.090170e-001 -5.877853e-001 0.000000e+000
    outer loop
      vertex   -3.495924e+001 5.366618e+001 3.932530e-015
      vertex   -3.495924e+001 5.366618e+001 7.000000e-001
      vertex   -3.508229e+001 5.349681e+001 7.000000e-001
    endloop
  endfacet
  facet normal 8.660254e-001 -5.000000e-001 0.000000e+000
    outer loop
      vertex   -3.508229e+001 5.349681e+001 3.921299e-015
      vertex   -3.508229e+001 5.349681e+001 7.000000e-001
      vertex   -3.518696e+001 5.331552e+001 7.000000e-001
    endloop
  endfacet
  facet normal 9.135455e-001 -4.067366e-001 0.000000e+000
    outer loop
      vertex   -3.518696e+001 5.331552e+001 3.909678e-015
      vertex   -3.518696e+001 5.331552e+001 7.000000e-001
      vertex   -3.527211e+001 5.312427e+001 7.000000e-001
    endloop
  endfacet
  facet normal 9.510565e-001 -3.090170e-001 0.000000e+000
    outer loop
      vertex   -3.527211e+001 5.312427e+001 3.897795e-015
      vertex   -3.527211e+001 5.312427e+001 7.000000e-001
      vertex   -3.533680e+001 5.292517e+001 3.885781e-015
    endloop
  endfacet
  facet normal 9.135455e-001 -4.067366e-001 0.000000e+000
    outer loop
      vertex   -3.527211e+001 5.312427e+001 3.897795e-015
      vertex   -3.518696e+001 5.331552e+001 3.909678e-015
      vertex   -3.527211e+001 5.312427e+001 7.000000e-001
    endloop
  endfacet
  facet normal 1.000000e+000 0.000000e+000 0.000000e+000
    outer loop
      vertex   -3.540221e+001 5.251221e+001 3.861883e-015
      vertex   -3.540221e+001 5.230286e+001 7.000000e-001
      vertex   -3.540221e+001 5.230286e+001 3.850263e-015
    endloop
  endfacet
  facet normal 9.945219e-001 1.045285e-001 0.000000e+000
    outer loop
      vertex   -3.540221e+001 5.230286e+001 3.850263e-015
      vertex   -3.538033e+001 5.209467e+001 7.000000e-001
      vertex   -3.538033e+001 5.209467e+001 3.839031e-015
    endloop
  endfacet
  facet normal 9.781476e-001 2.079117e-001 0.000000e+000
    outer loop
      vertex   -3.538033e+001 5.209467e+001 3.839031e-015
      vertex   -3.533680e+001 5.188990e+001 7.000000e-001
      vertex   -3.533680e+001 5.188990e+001 3.828311e-015
    endloop
  endfacet
  facet normal 9.510565e-001 3.090170e-001 0.000000e+000
    outer loop
      vertex   -3.533680e+001 5.188990e+001 3.828311e-015
      vertex   -3.527211e+001 5.169080e+001 7.000000e-001
      vertex   -3.527211e+001 5.169080e+001 3.818221e-015
    endloop
  endfacet
  facet normal 9.135455e-001 4.067366e-001 -9.273044e-015
    outer loop
      vertex   -3.527211e+001 5.169080e+001 3.818221e-015
      vertex   -3.518696e+001 5.149955e+001 7.000000e-001
      vertex   -3.518696e+001 5.149955e+001 3.808872e-015
    endloop
  endfacet
  facet normal 8.660254e-001 5.000000e-001 0.000000e+000
    outer loop
      vertex   -3.518696e+001 5.149955e+001 3.808872e-015
      vertex   -3.508229e+001 5.131826e+001 7.000000e-001
      vertex   -3.508229e+001 5.131826e+001 3.800364e-015
    endloop
  endfacet
  facet normal 8.090170e-001 5.877853e-001 0.000000e+000
    outer loop
      vertex   -3.508229e+001 5.131826e+001 3.800364e-015
      vertex   -3.495924e+001 5.114889e+001 7.000000e-001
      vertex   -3.495924e+001 5.114889e+001 3.792793e-015
    endloop
  endfacet
  facet normal 7.431448e-001 6.691306e-001 0.000000e+000
    outer loop
      vertex   -3.495924e+001 5.114889e+001 3.792793e-015
      vertex   -3.481916e+001 5.099332e+001 7.000000e-001
      vertex   -3.481916e+001 5.099332e+001 3.786241e-015
    endloop
  endfacet
  facet normal 6.691306e-001 7.431448e-001 0.000000e+000
    outer loop
      vertex   -3.481916e+001 5.099332e+001 3.786241e-015
      vertex   -3.466359e+001 5.085324e+001 7.000000e-001
      vertex   -3.466359e+001 5.085324e+001 3.780779e-015
    endloop
  endfacet
  facet normal 5.877853e-001 8.090170e-001 0.000000e+000
    outer loop
      vertex   -3.466359e+001 5.085324e+001 3.780779e-015
      vertex   -3.449423e+001 5.073019e+001 7.000000e-001
      vertex   -3.449423e+001 5.073019e+001 3.776467e-015
    endloop
  endfacet
  facet normal 5.000000e-001 8.660254e-001 0.000000e+000
    outer loop
      vertex   -3.449423e+001 5.073019e+001 3.776467e-015
      vertex   -3.431293e+001 5.062552e+001 7.000000e-001
      vertex   -3.431293e+001 5.062552e+001 3.773354e-015
    endloop
  endfacet
  facet normal 4.067366e-001 9.135455e-001 0.000000e+000
    outer loop
      vertex   -3.431293e+001 5.062552e+001 3.773354e-015
      vertex   -3.412169e+001 5.054037e+001 7.000000e-001
      vertex   -3.412169e+001 5.054037e+001 3.771471e-015
    endloop
  endfacet
  facet normal 3.090170e-001 9.510565e-001 0.000000e+000
    outer loop
      vertex   -3.412169e+001 5.054037e+001 3.771471e-015
      vertex   -3.392259e+001 5.047568e+001 7.000000e-001
      vertex   -3.392259e+001 5.047568e+001 3.770842e-015
    endloop
  endfacet
  facet normal 2.079117e-001 9.781476e-001 0.000000e+000
    outer loop
      vertex   -3.392259e+001 5.047568e+001 3.770842e-015
      vertex   -3.371782e+001 5.043216e+001 7.000000e-001
      vertex   -3.371782e+001 5.043216e+001 3.771471e-015
    endloop
  endfacet
  facet normal 1.045285e-001 9.945219e-001 0.000000e+000
    outer loop
      vertex   -3.371782e+001 5.043216e+001 3.771471e-015
      vertex   -3.350962e+001 5.041028e+001 7.000000e-001
      vertex   -3.350962e+001 5.041028e+001 3.773354e-015
    endloop
  endfacet
  facet normal -0.000000e+000 1.000000e+000 0.000000e+000
    outer loop
      vertex   -3.350962e+001 5.041028e+001 3.773354e-015
      vertex   -3.330028e+001 5.041028e+001 7.000000e-001
      vertex   -3.330028e+001 5.041028e+001 3.776467e-015
    endloop
  endfacet
  facet normal -1.045285e-001 9.945219e-001 0.000000e+000
    outer loop
      vertex   -3.330028e+001 5.041028e+001 3.776467e-015
      vertex   -3.309208e+001 5.043216e+001 7.000000e-001
      vertex   -3.309208e+001 5.043216e+001 3.780779e-015
    endloop
  endfacet
  facet normal -2.079117e-001 9.781476e-001 0.000000e+000
    outer loop
      vertex   -3.309208e+001 5.043216e+001 3.780779e-015
      vertex   -3.288731e+001 5.047568e+001 7.000000e-001
      vertex   -3.288731e+001 5.047568e+001 3.786241e-015
    endloop
  endfacet
  facet normal -3.090170e-001 9.510565e-001 0.000000e+000
    outer loop
      vertex   -3.288731e+001 5.047568e+001 3.786241e-015
      vertex   -3.268821e+001 5.054037e+001 7.000000e-001
      vertex   -3.268821e+001 5.054037e+001 3.792793e-015
    endloop
  endfacet
  facet normal -4.067366e-001 9.135455e-001 0.000000e+000
    outer loop
      vertex   -3.268821e+001 5.054037e+001 3.792793e-015
      vertex   -3.249697e+001 5.062552e+001 7.000000e-001
      vertex   -3.249697e+001 5.062552e+001 3.800364e-015
    endloop
  endfacet
  facet normal -5.000000e-001 8.660254e-001 0.000000e+000
    outer loop
      vertex   -3.249697e+001 5.062552e+001 3.800364e-015
      vertex   -3.231567e+001 5.073019e+001 7.000000e-001
      vertex   -3.231567e+001 5.073019e+001 3.808872e-015
    endloop
  endfacet
  facet normal -5.877853e-001 8.090170e-001 0.000000e+000
    outer loop
      vertex   -3.231567e+001 5.073019e+001 3.808872e-015
      vertex   -3.214631e+001 5.085324e+001 7.000000e-001
      vertex   -3.214631e+001 5.085324e+001 3.818221e-015
    endloop
  endfacet
  facet normal -6.691306e-001 7.431448e-001 0.000000e+000
    outer loop
      vertex   -3.214631e+001 5.085324e+001 3.818221e-015
      vertex   -3.199074e+001 5.099332e+001 7.000000e-001
      vertex   -3.199074e+001 5.099332e+001 3.828311e-015
    endloop
  endfacet
  facet normal -7.431448e-001 6.691306e-001 3.771687e-015
    outer loop
      vertex   -3.199074e+001 5.099332e+001 3.828311e-015
      vertex   -3.185066e+001 5.114889e+001 7.000000e-001
      vertex   -3.185066e+001 5.114889e+001 3.839031e-015
    endloop
  endfacet
  facet normal -8.090170e-001 5.877853e-001 0.000000e+000
    outer loop
      vertex   -3.185066e+001 5.114889e+001 3.839031e-015
      vertex   -3.172761e+001 5.131826e+001 7.000000e-001
      vertex   -3.172761e+001 5.131826e+001 3.850263e-015
    endloop
  endfacet
  facet normal -8.660254e-001 5.000000e-001 0.000000e+000
    outer loop
      vertex   -3.172761e+001 5.131826e+001 3.850263e-015
      vertex   -3.162294e+001 5.149955e+001 7.000000e-001
      vertex   -3.162294e+001 5.149955e+001 3.861883e-015
    endloop
  endfacet
  facet normal -9.135455e-001 4.067366e-001 0.000000e+000
    outer loop
      vertex   -3.162294e+001 5.149955e+001 3.861883e-015
      vertex   -3.153779e+001 5.169080e+001 7.000000e-001
      vertex   -3.153779e+001 5.169080e+001 3.873766e-015
    endloop
  endfacet
  facet normal -9.510565e-001 3.090170e-001 0.000000e+000
    outer loop
      vertex   -3.153779e+001 5.169080e+001 3.873766e-015
      vertex   -3.147310e+001 5.188990e+001 7.000000e-001
      vertex   -3.147310e+001 5.188990e+001 3.885781e-015
    endloop
  endfacet
  facet normal -9.781476e-001 2.079117e-001 4.964398e-015
    outer loop
      vertex   -3.147310e+001 5.188990e+001 3.885781e-015
      vertex   -3.142957e+001 5.209467e+001 7.000000e-001
      vertex   -3.142957e+001 5.209467e+001 3.897795e-015
    endloop
  endfacet
  facet normal -9.945219e-001 1.045285e-001 0.000000e+000
    outer loop
      vertex   -3.142957e+001 5.209467e+001 3.897795e-015
      vertex   -3.140769e+001 5.230286e+001 7.000000e-001
      vertex   -3.140769e+001 5.230286e+001 3.909678e-015
    endloop
  endfacet
  facet normal -1.000000e+000 1.697071e-014 0.000000e+000
    outer loop
      vertex   -3.140769e+001 5.230286e+001 3.909678e-015
      vertex   -3.140769e+001 5.251221e+001 7.000000e-001
      vertex   -3.140769e+001 5.251221e+001 3.921299e-015
    endloop
  endfacet
  facet normal -9.945219e-001 -1.045285e-001 -5.047502e-015
    outer loop
      vertex   -3.140769e+001 5.251221e+001 3.921299e-015
      vertex   -3.142957e+001 5.272040e+001 7.000000e-001
      vertex   -3.142957e+001 5.272040e+001 3.932530e-015
    endloop
  endfacet
  facet normal -9.781476e-001 -2.079117e-001 -0.000000e+000
    outer loop
      vertex   -3.142957e+001 5.272040e+001 3.932530e-015
      vertex   -3.147310e+001 5.292517e+001 7.000000e-001
      vertex   -3.147310e+001 5.292517e+001 3.943250e-015
    endloop
  endfacet
  facet normal -9.510565e-001 -3.090170e-001 -0.000000e+000
    outer loop
      vertex   -3.147310e+001 5.292517e+001 3.943250e-015
      vertex   -3.153779e+001 5.312427e+001 7.000000e-001
      vertex   -3.153779e+001 5.312427e+001 3.953340e-015
    endloop
  endfacet
  facet normal -9.135455e-001 -4.067366e-001 -0.000000e+000
    outer loop
      vertex   -3.153779e+001 5.312427e+001 3.953340e-015
      vertex   -3.162294e+001 5.331552e+001 7.000000e-001
      vertex   -3.162294e+001 5.331552e+001 3.962690e-015
    endloop
  endfacet
  facet normal -8.660254e-001 -5.000000e-001 -0.000000e+000
    outer loop
      vertex   -3.162294e+001 5.331552e+001 3.962690e-015
      vertex   -3.172761e+001 5.349681e+001 7.000000e-001
      vertex   -3.172761e+001 5.349681e+001 3.971197e-015
    endloop
  endfacet
  facet normal -8.090170e-001 -5.877853e-001 -0.000000e+000
    outer loop
      vertex   -3.172761e+001 5.349681e+001 3.971197e-015
      vertex   -3.185066e+001 5.366618e+001 7.000000e-001
      vertex   -3.185066e+001 5.366618e+001 3.978768e-015
    endloop
  endfacet
  facet normal -7.431448e-001 -6.691306e-001 -0.000000e+000
    outer loop
      vertex   -3.185066e+001 5.366618e+001 3.978768e-015
      vertex   -3.199074e+001 5.382175e+001 7.000000e-001
      vertex   -3.199074e+001 5.382175e+001 3.985320e-015
    endloop
  endfacet
  facet normal -6.691306e-001 -7.431448e-001 -0.000000e+000
    outer loop
      vertex   -3.199074e+001 5.382175e+001 3.985320e-015
      vertex   -3.214631e+001 5.396183e+001 7.000000e-001
      vertex   -3.214631e+001 5.396183e+001 3.990782e-015
    endloop
  endfacet
  facet normal -5.877853e-001 -8.090170e-001 -0.000000e+000
    outer loop
      vertex   -3.214631e+001 5.396183e+001 3.990782e-015
      vertex   -3.231567e+001 5.408488e+001 7.000000e-001
      vertex   -3.231567e+001 5.408488e+001 3.995094e-015
    endloop
  endfacet
  facet normal -5.000000e-001 -8.660254e-001 -0.000000e+000
    outer loop
      vertex   -3.231567e+001 5.408488e+001 3.995094e-015
      vertex   -3.249697e+001 5.418955e+001 7.000000e-001
      vertex   -3.249697e+001 5.418955e+001 3.998208e-015
    endloop
  endfacet
  facet normal -4.067366e-001 -9.135455e-001 9.273044e-015
    outer loop
      vertex   -3.249697e+001 5.418955e+001 3.998208e-015
      vertex   -3.268821e+001 5.427470e+001 7.000000e-001
      vertex   -3.268821e+001 5.427470e+001 4.000090e-015
    endloop
  endfacet
  facet normal -3.090170e-001 -9.510565e-001 -0.000000e+000
    outer loop
      vertex   -3.268821e+001 5.427470e+001 4.000090e-015
      vertex   -3.288731e+001 5.433939e+001 7.000000e-001
      vertex   -3.288731e+001 5.433939e+001 4.000719e-015
    endloop
  endfacet
  facet normal -2.079117e-001 -9.781476e-001 -0.000000e+000
    outer loop
      vertex   -3.288731e+001 5.433939e+001 4.000719e-015
      vertex   -3.309208e+001 5.438291e+001 7.000000e-001
      vertex   -3.309208e+001 5.438291e+001 4.000090e-015
    endloop
  endfacet
  facet normal -1.045285e-001 -9.945219e-001 -0.000000e+000
    outer loop
      vertex   -3.309208e+001 5.438291e+001 4.000090e-015
      vertex   -3.330028e+001 5.440479e+001 7.000000e-001
      vertex   -3.330028e+001 5.440479e+001 3.998208e-015
    endloop
  endfacet
  facet normal -0.000000e+000 -1.000000e+000 -0.000000e+000
    outer loop
      vertex   -3.330028e+001 5.440479e+001 3.998208e-015
      vertex   -3.350962e+001 5.440479e+001 7.000000e-001
      vertex   -3.350962e+001 5.440479e+001 3.995094e-015
    endloop
  endfacet
  facet normal 1.045285e-001 -9.945219e-001 0.000000e+000
    outer loop
      vertex   -3.350962e+001 5.440479e+001 3.995094e-015
      vertex   -3.371782e+001 5.438291e+001 7.000000e-001
      vertex   -3.371782e+001 5.438291e+001 3.990782e-015
    endloop
  endfacet
  facet normal 2.079117e-001 -9.781476e-001 2.110431e-015
    outer loop
      vertex   -3.371782e+001 5.438291e+001 3.990782e-015
      vertex   -3.392259e+001 5.433939e+001 7.000000e-001
      vertex   -3.392259e+001 5.433939e+001 3.985320e-015
    endloop
  endfacet
  facet normal 3.090170e-001 -9.510565e-001 0.000000e+000
    outer loop
      vertex   -3.392259e+001 5.433939e+001 3.985320e-015
      vertex   -3.412169e+001 5.427470e+001 7.000000e-001
      vertex   -3.412169e+001 5.427470e+001 3.978768e-015
    endloop
  endfacet
  facet normal 4.067366e-001 -9.135455e-001 4.128625e-015
    outer loop
      vertex   -3.412169e+001 5.427470e+001 3.978768e-015
      vertex   -3.431293e+001 5.418955e+001 7.000000e-001
      vertex   -3.431293e+001 5.418955e+001 3.971197e-015
    endloop
  endfacet
  facet normal 5.000000e-001 -8.660254e-001 0.000000e+000
    outer loop
      vertex   -3.431293e+001 5.418955e+001 3.971197e-015
      vertex   -3.449423e+001 5.408488e+001 7.000000e-001
      vertex   -3.449423e+001 5.408488e+001 3.962690e-015
    endloop
  endfacet
  facet normal 5.877853e-001 -8.090170e-001 0.000000e+000
    outer loop
      vertex   -3.449423e+001 5.408488e+001 3.962690e-015
      vertex   -3.466359e+001 5.396183e+001 7.000000e-001
      vertex   -3.466359e+001 5.396183e+001 3.953340e-015
    endloop
  endfacet
  facet normal 6.691306e-001 -7.431448e-001 6.792084e-015
    outer loop
      vertex   -3.466359e+001 5.396183e+001 3.953340e-015
      vertex   -3.481916e+001 5.382175e+001 7.000000e-001
      vertex   -3.481916e+001 5.382175e+001 3.943250e-015
    endloop
  endfacet
  facet normal 7.431448e-001 -6.691306e-001 0.000000e+000
    outer loop
      vertex   -3.481916e+001 5.382175e+001 3.943250e-015
      vertex   -3.495924e+001 5.366618e+001 7.000000e-001
      vertex   -3.495924e+001 5.366618e+001 3.932530e-015
    endloop
  endfacet
  facet normal 8.090170e-001 -5.877853e-001 0.000000e+000
    outer loop
      vertex   -3.495924e+001 5.366618e+001 3.932530e-015
      vertex   -3.508229e+001 5.349681e+001 7.000000e-001
      vertex   -3.508229e+001 5.349681e+001 3.921299e-015
    endloop
  endfacet
  facet normal 8.660254e-001 -5.000000e-001 0.000000e+000
    outer loop
      vertex   -3.508229e+001 5.349681e+001 3.921299e-015
      vertex   -3.518696e+001 5.331552e+001 7.000000e-001
      vertex   -3.518696e+001 5.331552e+001 3.909678e-015
    endloop
  endfacet
  facet normal 9.510565e-001 -3.090170e-001 0.000000e+000
    outer loop
      vertex   -3.527211e+001 5.312427e+001 7.000000e-001
      vertex   -3.533680e+001 5.292517e+001 7.000000e-001
      vertex   -3.533680e+001 5.292517e+001 3.885781e-015
    endloop
  endfacet
  facet normal 9.781476e-001 -2.079117e-001 0.000000e+000
    outer loop
      vertex   -3.533680e+001 5.292517e+001 3.885781e-015
      vertex   -3.533680e+001 5.292517e+001 7.000000e-001
      vertex   -3.538033e+001 5.272040e+001 3.873766e-015
    endloop
  endfacet
  facet normal 1.000000e+000 0.000000e+000 0.000000e+000
    outer loop
      vertex   -3.712886e+001 5.455753e+001 4.000000e+000
      vertex   -3.712886e+001 5.025753e+001 4.000000e+000
      vertex   -3.712886e+001 5.455753e+001 7.000000e-001
    endloop
  endfacet
  facet normal 1.000000e+000 0.000000e+000 0.000000e+000
    outer loop
      vertex   -3.712886e+001 5.455753e+001 7.000000e-001
      vertex   -3.712886e+001 5.025753e+001 4.000000e+000
      vertex   -3.712886e+001 5.025753e+001 7.000000e-001
    endloop
  endfacet
  facet normal 5.000000e-001 -8.660254e-001 0.000000e+000
    outer loop
      vertex   -3.712886e+001 5.455753e+001 4.000000e+000
      vertex   -3.712886e+001 5.455753e+001 7.000000e-001
      vertex   -3.636249e+001 5.500000e+001 4.000000e+000
    endloop
  endfacet
  facet normal 5.000000e-001 -8.660254e-001 -3.082284e-015
    outer loop
      vertex   -3.636249e+001 5.500000e+001 4.000000e+000
      vertex   -3.712886e+001 5.455753e+001 7.000000e-001
      vertex   -3.340495e+001 5.670753e+001 1.267945e+000
    endloop
  endfacet
  facet normal 5.000000e-001 -8.660254e-001 0.000000e+000
    outer loop
      vertex   -3.340495e+001 5.670753e+001 1.267945e+000
      vertex   -3.712886e+001 5.455753e+001 7.000000e-001
      vertex   -3.340495e+001 5.670753e+001 7.000000e-001
    endloop
  endfacet
  facet normal -5.000000e-001 -8.660254e-001 0.000000e+000
    outer loop
      vertex   -2.968104e+001 5.455753e+001 4.000000e+000
      vertex   -3.044741e+001 5.500000e+001 4.000000e+000
      vertex   -2.968104e+001 5.455753e+001 7.000000e-001
    endloop
  endfacet
  facet normal -5.000000e-001 -8.660254e-001 4.217862e-016
    outer loop
      vertex   -2.968104e+001 5.455753e+001 7.000000e-001
      vertex   -3.044741e+001 5.500000e+001 4.000000e+000
      vertex   -3.340495e+001 5.670753e+001 1.267945e+000
    endloop
  endfacet
  facet normal -5.000000e-001 -8.660254e-001 0.000000e+000
    outer loop
      vertex   -3.340495e+001 5.670753e+001 7.000000e-001
      vertex   -2.968104e+001 5.455753e+001 7.000000e-001
      vertex   -3.340495e+001 5.670753e+001 1.267945e+000
    endloop
  endfacet
  facet normal -5.000000e-001 8.660254e-001 0.000000e+000
    outer loop
      vertex   -3.340495e+001 4.810753e+001 7.000000e-001
      vertex   -3.340495e+001 4.810753e+001 9.720550e-001
      vertex   -2.968104e+001 5.025753e+001 7.000000e-001
    endloop
  endfacet
  facet normal -5.000000e-001 8.660254e-001 -2.718293e-015
    outer loop
      vertex   -2.968104e+001 5.025753e+001 7.000000e-001
      vertex   -3.340495e+001 4.810753e+001 9.720550e-001
      vertex   -3.012710e+001 5.000000e+001 4.000000e+000
    endloop
  endfacet
  facet normal -5.000000e-001 8.660254e-001 0.000000e+000
    outer loop
      vertex   -2.968104e+001 5.025753e+001 4.000000e+000
      vertex   -2.968104e+001 5.025753e+001 7.000000e-001
      vertex   -3.012710e+001 5.000000e+001 4.000000e+000
    endloop
  endfacet
  facet normal 5.000000e-001 8.660254e-001 0.000000e+000
    outer loop
      vertex   -3.712886e+001 5.025753e+001 4.000000e+000
      vertex   -3.668280e+001 5.000000e+001 4.000000e+000
      vertex   -3.712886e+001 5.025753e+001 7.000000e-001
    endloop
  endfacet
  facet normal 5.000000e-001 8.660254e-001 1.145792e-015
    outer loop
      vertex   -3.712886e+001 5.025753e+001 7.000000e-001
      vertex   -3.668280e+001 5.000000e+001 4.000000e+000
      vertex   -3.340495e+001 4.810753e+001 9.720550e-001
    endloop
  endfacet
  facet normal 5.000000e-001 8.660254e-001 0.000000e+000
    outer loop
      vertex   -3.340495e+001 4.810753e+001 7.000000e-001
      vertex   -3.712886e+001 5.025753e+001 7.000000e-001
      vertex   -3.340495e+001 4.810753e+001 9.720550e-001
    endloop
  endfacet
  facet normal -1.000000e+000 -8.262125e-016 0.000000e+000
    outer loop
      vertex   -2.968104e+001 5.025753e+001 4.000000e+000
      vertex   -2.968104e+001 5.455753e+001 4.000000e+000
      vertex   -2.968104e+001 5.025753e+001 7.000000e-001
    endloop
  endfacet
  facet normal -1.000000e+000 -8.262125e-016 -0.000000e+000
    outer loop
      vertex   -2.968104e+001 5.025753e+001 7.000000e-001
      vertex   -2.968104e+001 5.455753e+001 4.000000e+000
      vertex   -2.968104e+001 5.455753e+001 7.000000e-001
    endloop
  endfacet
  facet normal -5.190318e-016 1.103236e-016 1.000000e+000
    outer loop
      vertex   -3.538033e+001 5.272040e+001 7.000000e-001
      vertex   -3.533680e+001 5.292517e+001 7.000000e-001
      vertex   -3.712886e+001 5.455753e+001 7.000000e-001
    endloop
  endfacet
  facet normal -6.429925e-016 0.000000e+000 1.000000e+000
    outer loop
      vertex   -3.540221e+001 5.251221e+001 7.000000e-001
      vertex   -3.712886e+001 5.455753e+001 7.000000e-001
      vertex   -3.712886e+001 5.025753e+001 7.000000e-001
    endloop
  endfacet
  facet normal -5.718016e-016 -6.009877e-017 1.000000e+000
    outer loop
      vertex   -3.540221e+001 5.230286e+001 7.000000e-001
      vertex   -3.712886e+001 5.025753e+001 7.000000e-001
      vertex   -3.538033e+001 5.209467e+001 7.000000e-001
    endloop
  endfacet
  facet normal -6.429925e-016 0.000000e+000 1.000000e+000
    outer loop
      vertex   -3.540221e+001 5.230286e+001 7.000000e-001
      vertex   -3.540221e+001 5.251221e+001 7.000000e-001
      vertex   -3.712886e+001 5.025753e+001 7.000000e-001
    endloop
  endfacet
  facet normal -4.780408e-016 1.553249e-016 1.000000e+000
    outer loop
      vertex   -3.533680e+001 5.292517e+001 7.000000e-001
      vertex   -3.527211e+001 5.312427e+001 7.000000e-001
      vertex   -3.712886e+001 5.455753e+001 7.000000e-001
    endloop
  endfacet
  facet normal -4.450008e-016 1.981271e-016 1.000000e+000
    outer loop
      vertex   -3.712886e+001 5.455753e+001 7.000000e-001
      vertex   -3.527211e+001 5.312427e+001 7.000000e-001
      vertex   -3.518696e+001 5.331552e+001 7.000000e-001
    endloop
  endfacet
  facet normal -4.175378e-016 2.410656e-016 1.000000e+000
    outer loop
      vertex   -3.508229e+001 5.349681e+001 7.000000e-001
      vertex   -3.712886e+001 5.455753e+001 7.000000e-001
      vertex   -3.518696e+001 5.331552e+001 7.000000e-001
    endloop
  endfacet
  facet normal -3.940835e-016 2.863184e-016 1.000000e+000
    outer loop
      vertex   -3.508229e+001 5.349681e+001 7.000000e-001
      vertex   -3.495924e+001 5.366618e+001 7.000000e-001
      vertex   -3.712886e+001 5.455753e+001 7.000000e-001
    endloop
  endfacet
  facet normal -3.735357e-016 3.363330e-016 1.000000e+000
    outer loop
      vertex   -3.712886e+001 5.455753e+001 7.000000e-001
      vertex   -3.495924e+001 5.366618e+001 7.000000e-001
      vertex   -3.481916e+001 5.382175e+001 7.000000e-001
    endloop
  endfacet
  facet normal -3.550590e-016 3.943329e-016 1.000000e+000
    outer loop
      vertex   -3.466359e+001 5.396183e+001 7.000000e-001
      vertex   -3.712886e+001 5.455753e+001 7.000000e-001
      vertex   -3.481916e+001 5.382175e+001 7.000000e-001
    endloop
  endfacet
  facet normal -3.379479e-016 4.651453e-016 1.000000e+000
    outer loop
      vertex   -3.466359e+001 5.396183e+001 7.000000e-001
      vertex   -3.449423e+001 5.408488e+001 7.000000e-001
      vertex   -3.712886e+001 5.455753e+001 7.000000e-001
    endloop
  endfacet
  facet normal -3.214962e-016 5.568478e-016 1.000000e+000
    outer loop
      vertex   -3.712886e+001 5.455753e+001 7.000000e-001
      vertex   -3.449423e+001 5.408488e+001 7.000000e-001
      vertex   -3.431293e+001 5.418955e+001 7.000000e-001
    endloop
  endfacet
  facet normal -2.338537e-016 5.252441e-016 1.000000e+000
    outer loop
      vertex   -3.340495e+001 5.670753e+001 7.000000e-001
      vertex   -3.431293e+001 5.418955e+001 7.000000e-001
      vertex   -3.412169e+001 5.427470e+001 7.000000e-001
    endloop
  endfacet
  facet normal -1.639729e-016 5.046566e-016 1.000000e+000
    outer loop
      vertex   -3.392259e+001 5.433939e+001 7.000000e-001
      vertex   -3.340495e+001 5.670753e+001 7.000000e-001
      vertex   -3.412169e+001 5.427470e+001 7.000000e-001
    endloop
  endfacet
  facet normal -1.045051e-016 4.916579e-016 1.000000e+000
    outer loop
      vertex   -3.392259e+001 5.433939e+001 7.000000e-001
      vertex   -3.371782e+001 5.438291e+001 7.000000e-001
      vertex   -3.340495e+001 5.670753e+001 7.000000e-001
    endloop
  endfacet
  facet normal -5.091728e-017 4.844456e-016 1.000000e+000
    outer loop
      vertex   -3.340495e+001 5.670753e+001 7.000000e-001
      vertex   -3.371782e+001 5.438291e+001 7.000000e-001
      vertex   -3.350962e+001 5.440479e+001 7.000000e-001
    endloop
  endfacet
  facet normal 0.000000e+000 4.821311e-016 1.000000e+000
    outer loop
      vertex   -3.330028e+001 5.440479e+001 7.000000e-001
      vertex   -3.340495e+001 5.670753e+001 7.000000e-001
      vertex   -3.350962e+001 5.440479e+001 7.000000e-001
    endloop
  endfacet
  facet normal 5.091728e-017 4.844456e-016 1.000000e+000
    outer loop
      vertex   -3.330028e+001 5.440479e+001 7.000000e-001
      vertex   -3.309208e+001 5.438291e+001 7.000000e-001
      vertex   -3.340495e+001 5.670753e+001 7.000000e-001
    endloop
  endfacet
  facet normal 1.045051e-016 4.916579e-016 1.000000e+000
    outer loop
      vertex   -3.340495e+001 5.670753e+001 7.000000e-001
      vertex   -3.309208e+001 5.438291e+001 7.000000e-001
      vertex   -3.288731e+001 5.433939e+001 7.000000e-001
    endloop
  endfacet
  facet normal 1.639729e-016 5.046566e-016 1.000000e+000
    outer loop
      vertex   -3.268821e+001 5.427470e+001 7.000000e-001
      vertex   -3.340495e+001 5.670753e+001 7.000000e-001
      vertex   -3.288731e+001 5.433939e+001 7.000000e-001
    endloop
  endfacet
  facet normal 2.338537e-016 5.252441e-016 1.000000e+000
    outer loop
      vertex   -3.268821e+001 5.427470e+001 7.000000e-001
      vertex   -3.249697e+001 5.418955e+001 7.000000e-001
      vertex   -3.340495e+001 5.670753e+001 7.000000e-001
    endloop
  endfacet
  facet normal 3.214962e-016 5.568478e-016 1.000000e+000
    outer loop
      vertex   -3.340495e+001 5.670753e+001 7.000000e-001
      vertex   -3.249697e+001 5.418955e+001 7.000000e-001
      vertex   -2.968104e+001 5.455753e+001 7.000000e-001
    endloop
  endfacet
  facet normal 3.214962e-016 5.568478e-016 1.000000e+000
    outer loop
      vertex   -2.968104e+001 5.455753e+001 7.000000e-001
      vertex   -3.249697e+001 5.418955e+001 7.000000e-001
      vertex   -3.231567e+001 5.408488e+001 7.000000e-001
    endloop
  endfacet
  facet normal 3.379479e-016 4.651453e-016 1.000000e+000
    outer loop
      vertex   -3.214631e+001 5.396183e+001 7.000000e-001
      vertex   -2.968104e+001 5.455753e+001 7.000000e-001
      vertex   -3.231567e+001 5.408488e+001 7.000000e-001
    endloop
  endfacet
  facet normal 3.550590e-016 3.943329e-016 1.000000e+000
    outer loop
      vertex   -3.214631e+001 5.396183e+001 7.000000e-001
      vertex   -3.199074e+001 5.382175e+001 7.000000e-001
      vertex   -2.968104e+001 5.455753e+001 7.000000e-001
    endloop
  endfacet
  facet normal 3.735357e-016 3.363330e-016 1.000000e+000
    outer loop
      vertex   -2.968104e+001 5.455753e+001 7.000000e-001
      vertex   -3.199074e+001 5.382175e+001 7.000000e-001
      vertex   -3.185066e+001 5.366618e+001 7.000000e-001
    endloop
  endfacet
  facet normal 3.940835e-016 2.863184e-016 1.000000e+000
    outer loop
      vertex   -3.172761e+001 5.349681e+001 7.000000e-001
      vertex   -2.968104e+001 5.455753e+001 7.000000e-001
      vertex   -3.185066e+001 5.366618e+001 7.000000e-001
    endloop
  endfacet
  facet normal 4.175378e-016 2.410656e-016 1.000000e+000
    outer loop
      vertex   -3.172761e+001 5.349681e+001 7.000000e-001
      vertex   -3.162294e+001 5.331552e+001 7.000000e-001
      vertex   -2.968104e+001 5.455753e+001 7.000000e-001
    endloop
  endfacet
  facet normal 4.450008e-016 1.981271e-016 1.000000e+000
    outer loop
      vertex   -2.968104e+001 5.455753e+001 7.000000e-001
      vertex   -3.162294e+001 5.331552e+001 7.000000e-001
      vertex   -3.153779e+001 5.312427e+001 7.000000e-001
    endloop
  endfacet
  facet normal 4.780408e-016 1.553249e-016 1.000000e+000
    outer loop
      vertex   -3.147310e+001 5.292517e+001 7.000000e-001
      vertex   -2.968104e+001 5.455753e+001 7.000000e-001
      vertex   -3.153779e+001 5.312427e+001 7.000000e-001
    endloop
  endfacet
  facet normal 5.190318e-016 1.103236e-016 1.000000e+000
    outer loop
      vertex   -3.147310e+001 5.292517e+001 7.000000e-001
      vertex   -3.142957e+001 5.272040e+001 7.000000e-001
      vertex   -2.968104e+001 5.455753e+001 7.000000e-001
    endloop
  endfacet
  facet normal 5.718016e-016 6.009877e-017 1.000000e+000
    outer loop
      vertex   -2.968104e+001 5.455753e+001 7.000000e-001
      vertex   -3.142957e+001 5.272040e+001 7.000000e-001
      vertex   -3.140769e+001 5.251221e+001 7.000000e-001
    endloop
  endfacet
  facet normal 6.429925e-016 -1.091204e-029 1.000000e+000
    outer loop
      vertex   -2.968104e+001 5.025753e+001 7.000000e-001
      vertex   -3.140769e+001 5.251221e+001 7.000000e-001
      vertex   -3.140769e+001 5.230286e+001 7.000000e-001
    endloop
  endfacet
  facet normal 5.718016e-016 -6.009877e-017 1.000000e+000
    outer loop
      vertex   -3.142957e+001 5.209467e+001 7.000000e-001
      vertex   -2.968104e+001 5.025753e+001 7.000000e-001
      vertex   -3.140769e+001 5.230286e+001 7.000000e-001
    endloop
  endfacet
  facet normal 5.190318e-016 -1.103236e-016 1.000000e+000
    outer loop
      vertex   -3.142957e+001 5.209467e+001 7.000000e-001
      vertex   -3.147310e+001 5.188990e+001 7.000000e-001
      vertex   -2.968104e+001 5.025753e+001 7.000000e-001
    endloop
  endfacet
  facet normal 4.780408e-016 -1.553249e-016 1.000000e+000
    outer loop
      vertex   -2.968104e+001 5.025753e+001 7.000000e-001
      vertex   -3.147310e+001 5.188990e+001 7.000000e-001
      vertex   -3.153779e+001 5.169080e+001 7.000000e-001
    endloop
  endfacet
  facet normal 4.450008e-016 -1.981271e-016 1.000000e+000
    outer loop
      vertex   -3.162294e+001 5.149955e+001 7.000000e-001
      vertex   -2.968104e+001 5.025753e+001 7.000000e-001
      vertex   -3.153779e+001 5.169080e+001 7.000000e-001
    endloop
  endfacet
  facet normal 4.175378e-016 -2.410656e-016 1.000000e+000
    outer loop
      vertex   -3.162294e+001 5.149955e+001 7.000000e-001
      vertex   -3.172761e+001 5.131826e+001 7.000000e-001
      vertex   -2.968104e+001 5.025753e+001 7.000000e-001
    endloop
  endfacet
  facet normal 3.940835e-016 -2.863184e-016 1.000000e+000
    outer loop
      vertex   -2.968104e+001 5.025753e+001 7.000000e-001
      vertex   -3.172761e+001 5.131826e+001 7.000000e-001
      vertex   -3.185066e+001 5.114889e+001 7.000000e-001
    endloop
  endfacet
  facet normal 3.735357e-016 -3.363330e-016 1.000000e+000
    outer loop
      vertex   -3.199074e+001 5.099332e+001 7.000000e-001
      vertex   -2.968104e+001 5.025753e+001 7.000000e-001
      vertex   -3.185066e+001 5.114889e+001 7.000000e-001
    endloop
  endfacet
  facet normal 3.550590e-016 -3.943329e-016 1.000000e+000
    outer loop
      vertex   -3.199074e+001 5.099332e+001 7.000000e-001
      vertex   -3.214631e+001 5.085324e+001 7.000000e-001
      vertex   -2.968104e+001 5.025753e+001 7.000000e-001
    endloop
  endfacet
  facet normal 3.379479e-016 -4.651453e-016 1.000000e+000
    outer loop
      vertex   -2.968104e+001 5.025753e+001 7.000000e-001
      vertex   -3.214631e+001 5.085324e+001 7.000000e-001
      vertex   -3.231567e+001 5.073019e+001 7.000000e-001
    endloop
  endfacet
  facet normal 3.214962e-016 -5.568478e-016 1.000000e+000
    outer loop
      vertex   -3.340495e+001 4.810753e+001 7.000000e-001
      vertex   -3.231567e+001 5.073019e+001 7.000000e-001
      vertex   -3.249697e+001 5.062552e+001 7.000000e-001
    endloop
  endfacet
  facet normal 2.338537e-016 -5.252441e-016 1.000000e+000
    outer loop
      vertex   -3.268821e+001 5.054037e+001 7.000000e-001
      vertex   -3.340495e+001 4.810753e+001 7.000000e-001
      vertex   -3.249697e+001 5.062552e+001 7.000000e-001
    endloop
  endfacet
  facet normal 1.639729e-016 -5.046566e-016 1.000000e+000
    outer loop
      vertex   -3.268821e+001 5.054037e+001 7.000000e-001
      vertex   -3.288731e+001 5.047568e+001 7.000000e-001
      vertex   -3.340495e+001 4.810753e+001 7.000000e-001
    endloop
  endfacet
  facet normal 1.045051e-016 -4.916579e-016 1.000000e+000
    outer loop
      vertex   -3.340495e+001 4.810753e+001 7.000000e-001
      vertex   -3.288731e+001 5.047568e+001 7.000000e-001
      vertex   -3.309208e+001 5.043216e+001 7.000000e-001
    endloop
  endfacet
  facet normal 5.091728e-017 -4.844456e-016 1.000000e+000
    outer loop
      vertex   -3.330028e+001 5.041028e+001 7.000000e-001
      vertex   -3.340495e+001 4.810753e+001 7.000000e-001
      vertex   -3.309208e+001 5.043216e+001 7.000000e-001
    endloop
  endfacet
  facet normal 0.000000e+000 -4.821311e-016 1.000000e+000
    outer loop
      vertex   -3.330028e+001 5.041028e+001 7.000000e-001
      vertex   -3.350962e+001 5.041028e+001 7.000000e-001
      vertex   -3.340495e+001 4.810753e+001 7.000000e-001
    endloop
  endfacet
  facet normal -5.091728e-017 -4.844456e-016 1.000000e+000
    outer loop
      vertex   -3.340495e+001 4.810753e+001 7.000000e-001
      vertex   -3.350962e+001 5.041028e+001 7.000000e-001
      vertex   -3.371782e+001 5.043216e+001 7.000000e-001
    endloop
  endfacet
  facet normal -1.045051e-016 -4.916579e-016 1.000000e+000
    outer loop
      vertex   -3.392259e+001 5.047568e+001 7.000000e-001
      vertex   -3.340495e+001 4.810753e+001 7.000000e-001
      vertex   -3.371782e+001 5.043216e+001 7.000000e-001
    endloop
  endfacet
  facet normal -1.639729e-016 -5.046566e-016 1.000000e+000
    outer loop
      vertex   -3.392259e+001 5.047568e+001 7.000000e-001
      vertex   -3.412169e+001 5.054037e+001 7.000000e-001
      vertex   -3.340495e+001 4.810753e+001 7.000000e-001
    endloop
  endfacet
  facet normal -2.338537e-016 -5.252441e-016 1.000000e+000
    outer loop
      vertex   -3.340495e+001 4.810753e+001 7.000000e-001
      vertex   -3.412169e+001 5.054037e+001 7.000000e-001
      vertex   -3.431293e+001 5.062552e+001 7.000000e-001
    endloop
  endfacet
  facet normal -3.214962e-016 -5.568478e-016 1.000000e+000
    outer loop
      vertex   -3.712886e+001 5.025753e+001 7.000000e-001
      vertex   -3.431293e+001 5.062552e+001 7.000000e-001
      vertex   -3.449423e+001 5.073019e+001 7.000000e-001
    endloop
  endfacet
  facet normal -3.379479e-016 -4.651453e-016 1.000000e+000
    outer loop
      vertex   -3.466359e+001 5.085324e+001 7.000000e-001
      vertex   -3.712886e+001 5.025753e+001 7.000000e-001
      vertex   -3.449423e+001 5.073019e+001 7.000000e-001
    endloop
  endfacet
  facet normal -3.550590e-016 -3.943329e-016 1.000000e+000
    outer loop
      vertex   -3.466359e+001 5.085324e+001 7.000000e-001
      vertex   -3.481916e+001 5.099332e+001 7.000000e-001
      vertex   -3.712886e+001 5.025753e+001 7.000000e-001
    endloop
  endfacet
  facet normal -3.735357e-016 -3.363330e-016 1.000000e+000
    outer loop
      vertex   -3.712886e+001 5.025753e+001 7.000000e-001
      vertex   -3.481916e+001 5.099332e+001 7.000000e-001
      vertex   -3.495924e+001 5.114889e+001 7.000000e-001
    endloop
  endfacet
  facet normal -3.940835e-016 -2.863184e-016 1.000000e+000
    outer loop
      vertex   -3.508229e+001 5.131826e+001 7.000000e-001
      vertex   -3.712886e+001 5.025753e+001 7.000000e-001
      vertex   -3.495924e+001 5.114889e+001 7.000000e-001
    endloop
  endfacet
  facet normal -4.175378e-016 -2.410656e-016 1.000000e+000
    outer loop
      vertex   -3.508229e+001 5.131826e+001 7.000000e-001
      vertex   -3.518696e+001 5.149955e+001 7.000000e-001
      vertex   -3.712886e+001 5.025753e+001 7.000000e-001
    endloop
  endfacet
  facet normal -4.450008e-016 -1.981271e-016 1.000000e+000
    outer loop
      vertex   -3.712886e+001 5.025753e+001 7.000000e-001
      vertex   -3.518696e+001 5.149955e+001 7.000000e-001
      vertex   -3.527211e+001 5.169080e+001 7.000000e-001
    endloop
  endfacet
  facet normal -4.780408e-016 -1.553249e-016 1.000000e+000
    outer loop
      vertex   -3.533680e+001 5.188990e+001 7.000000e-001
      vertex   -3.712886e+001 5.025753e+001 7.000000e-001
      vertex   -3.527211e+001 5.169080e+001 7.000000e-001
    endloop
  endfacet
  facet normal -5.190318e-016 -1.103236e-016 1.000000e+000
    outer loop
      vertex   -3.533680e+001 5.188990e+001 7.000000e-001
      vertex   -3.538033e+001 5.209467e+001 7.000000e-001
      vertex   -3.712886e+001 5.025753e+001 7.000000e-001
    endloop
  endfacet
  facet normal -3.214962e-016 5.568478e-016 1.000000e+000
    outer loop
      vertex   -3.712886e+001 5.455753e+001 7.000000e-001
      vertex   -3.431293e+001 5.418955e+001 7.000000e-001
      vertex   -3.340495e+001 5.670753e+001 7.000000e-001
    endloop
  endfacet
  facet normal 6.429925e-016 5.312484e-031 1.000000e+000
    outer loop
      vertex   -2.968104e+001 5.455753e+001 7.000000e-001
      vertex   -3.140769e+001 5.251221e+001 7.000000e-001
      vertex   -2.968104e+001 5.025753e+001 7.000000e-001
    endloop
  endfacet
  facet normal 3.214962e-016 -5.568478e-016 1.000000e+000
    outer loop
      vertex   -2.968104e+001 5.025753e+001 7.000000e-001
      vertex   -3.231567e+001 5.073019e+001 7.000000e-001
      vertex   -3.340495e+001 4.810753e+001 7.000000e-001
    endloop
  endfacet
  facet normal -3.214962e-016 -5.568478e-016 1.000000e+000
    outer loop
      vertex   -3.340495e+001 4.810753e+001 7.000000e-001
      vertex   -3.431293e+001 5.062552e+001 7.000000e-001
      vertex   -3.712886e+001 5.025753e+001 7.000000e-001
    endloop
  endfacet
  facet normal -5.718016e-016 6.009877e-017 1.000000e+000
    outer loop
      vertex   -3.540221e+001 5.251221e+001 7.000000e-001
      vertex   -3.538033e+001 5.272040e+001 7.000000e-001
      vertex   -3.712886e+001 5.455753e+001 7.000000e-001
    endloop
  endfacet
  facet normal -3.839026e-016 6.649388e-016 1.000000e+000
    outer loop
      vertex   -3.012710e+001 5.000000e+001 4.000000e+000
      vertex   -2.550000e+001 5.000000e+001 4.000000e+000
      vertex   -2.968104e+001 5.025753e+001 4.000000e+000
    endloop
  endfacet
  facet normal -4.248600e-016 -3.510247e-031 1.000000e+000
    outer loop
      vertex   -2.968104e+001 5.025753e+001 4.000000e+000
      vertex   -2.550000e+001 5.000000e+001 4.000000e+000
      vertex   -2.968104e+001 5.455753e+001 4.000000e+000
    endloop
  endfacet
  facet normal -4.248600e-016 0.000000e+000 1.000000e+000
    outer loop
      vertex   -2.968104e+001 5.455753e+001 4.000000e+000
      vertex   -2.550000e+001 5.000000e+001 4.000000e+000
      vertex   -2.550000e+001 5.500000e+001 4.000000e+000
    endloop
  endfacet
  facet normal -3.590476e-016 -6.218887e-016 1.000000e+000
    outer loop
      vertex   -3.044741e+001 5.500000e+001 4.000000e+000
      vertex   -2.968104e+001 5.455753e+001 4.000000e+000
      vertex   -2.550000e+001 5.500000e+001 4.000000e+000
    endloop
  endfacet
  facet normal -2.326778e-016 -4.030097e-016 1.000000e+000
    outer loop
      vertex   -3.668280e+001 5.000000e+001 4.000000e+000
      vertex   -3.712886e+001 5.025753e+001 4.000000e+000
      vertex   -4.050000e+001 5.000000e+001 4.000000e+000
    endloop
  endfacet
  facet normal -2.634652e-016 0.000000e+000 1.000000e+000
    outer loop
      vertex   -4.050000e+001 5.000000e+001 4.000000e+000
      vertex   -3.712886e+001 5.025753e+001 4.000000e+000
      vertex   -3.712886e+001 5.455753e+001 4.000000e+000
    endloop
  endfacet
  facet normal -2.146647e-016 3.718102e-016 1.000000e+000
    outer loop
      vertex   -4.050000e+001 5.500000e+001 4.000000e+000
      vertex   -3.712886e+001 5.455753e+001 4.000000e+000
      vertex   -3.636249e+001 5.500000e+001 4.000000e+000
    endloop
  endfacet
  facet normal -2.634652e-016 0.000000e+000 1.000000e+000
    outer loop
      vertex   -4.050000e+001 5.500000e+001 4.000000e+000
      vertex   -4.050000e+001 5.000000e+001 4.000000e+000
      vertex   -3.712886e+001 5.455753e+001 4.000000e+000
    endloop
  endfacet
  facet normal -1.332589e-016 8.479983e-001 5.299989e-001
    outer loop
      vertex   -3.636249e+001 5.500000e+001 4.000000e+000
      vertex   -3.340495e+001 5.670753e+001 1.267945e+000
      vertex   -4.050000e+001 5.500000e+001 4.000000e+000
    endloop
  endfacet
  facet normal 9.288547e-017 8.479983e-001 5.299989e-001
    outer loop
      vertex   -4.050000e+001 5.500000e+001 4.000000e+000
      vertex   -3.340495e+001 5.670753e+001 1.267945e+000
      vertex   -4.050000e+001 5.750000e+001 2.775558e-015
    endloop
  endfacet
  facet normal -1.584030e-016 8.479983e-001 5.299989e-001
    outer loop
      vertex   -4.050000e+001 5.750000e+001 2.775558e-015
      vertex   -3.340495e+001 5.670753e+001 1.267945e+000
      vertex   -2.550000e+001 5.750000e+001 7.216450e-015
    endloop
  endfacet
  facet normal -3.811150e-016 8.479983e-001 5.299989e-001
    outer loop
      vertex   -2.550000e+001 5.750000e+001 7.216450e-015
      vertex   -3.340495e+001 5.670753e+001 1.267945e+000
      vertex   -2.550000e+001 5.500000e+001 4.000000e+000
    endloop
  endfacet
  facet normal -2.228885e-016 8.479983e-001 5.299989e-001
    outer loop
      vertex   -2.550000e+001 5.500000e+001 4.000000e+000
      vertex   -3.340495e+001 5.670753e+001 1.267945e+000
      vertex   -3.044741e+001 5.500000e+001 4.000000e+000
    endloop
  endfacet
  facet normal -1.233190e-016 -8.479983e-001 5.299989e-001
    outer loop
      vertex   -3.668280e+001 5.000000e+001 4.000000e+000
      vertex   -4.050000e+001 5.000000e+001 4.000000e+000
      vertex   -3.340495e+001 4.810753e+001 9.720550e-001
    endloop
  endfacet
  facet normal -5.307741e-016 -8.479983e-001 5.299989e-001
    outer loop
      vertex   -3.340495e+001 4.810753e+001 9.720550e-001
      vertex   -4.050000e+001 5.000000e+001 4.000000e+000
      vertex   -4.050000e+001 4.750000e+001 2.775558e-015
    endloop
  endfacet
  facet normal -1.549653e-016 -8.479983e-001 5.299989e-001
    outer loop
      vertex   -2.550000e+001 4.750000e+001 7.216450e-015
      vertex   -3.340495e+001 4.810753e+001 9.720550e-001
      vertex   -4.050000e+001 4.750000e+001 2.775558e-015
    endloop
  endfacet
  facet normal 1.905575e-016 -8.479983e-001 5.299989e-001
    outer loop
      vertex   -2.550000e+001 4.750000e+001 7.216450e-015
      vertex   -2.550000e+001 5.000000e+001 4.000000e+000
      vertex   -3.340495e+001 4.810753e+001 9.720550e-001
    endloop
  endfacet
  facet normal -2.034680e-016 -8.479983e-001 5.299989e-001
    outer loop
      vertex   -3.340495e+001 4.810753e+001 9.720550e-001
      vertex   -2.550000e+001 5.000000e+001 4.000000e+000
      vertex   -3.012710e+001 5.000000e+001 4.000000e+000
    endloop
  endfacet
  facet normal 2.084751e-016 -7.393612e-018 -1.000000e+000
    outer loop
      vertex   -3.527211e+001 5.312427e+001 3.897795e-015
      vertex   -3.533680e+001 5.292517e+001 3.885781e-015
      vertex   -4.050000e+001 5.750000e+001 2.775558e-015
    endloop
  endfacet
  facet normal 1.814399e-016 -4.065564e-017 -1.000000e+000
    outer loop
      vertex   -3.518696e+001 5.331552e+001 3.909678e-015
      vertex   -4.050000e+001 5.750000e+001 2.775558e-015
      vertex   -3.508229e+001 5.349681e+001 3.921299e-015
    endloop
  endfacet
  facet normal 1.942725e-016 -2.436214e-017 -1.000000e+000
    outer loop
      vertex   -3.518696e+001 5.331552e+001 3.909678e-015
      vertex   -3.527211e+001 5.312427e+001 3.897795e-015
      vertex   -4.050000e+001 5.750000e+001 2.775558e-015
    endloop
  endfacet
  facet normal 2.246950e-016 1.091235e-017 -1.000000e+000
    outer loop
      vertex   -3.533680e+001 5.292517e+001 3.885781e-015
      vertex   -3.538033e+001 5.272040e+001 3.873766e-015
      vertex   -4.050000e+001 5.750000e+001 2.775558e-015
    endloop
  endfacet
  facet normal 2.438624e-016 3.144352e-017 -1.000000e+000
    outer loop
      vertex   -4.050000e+001 5.750000e+001 2.775558e-015
      vertex   -3.538033e+001 5.272040e+001 3.873766e-015
      vertex   -3.540221e+001 5.251221e+001 3.861883e-015
    endloop
  endfacet
  facet normal 1.585182e-016 5.551115e-017 -1.000000e+000
    outer loop
      vertex   -4.050000e+001 4.750000e+001 2.775558e-015
      vertex   -3.540221e+001 5.251221e+001 3.861883e-015
      vertex   -3.540221e+001 5.230286e+001 3.850263e-015
    endloop
  endfacet
  facet normal 1.455757e-016 6.924843e-017 -1.000000e+000
    outer loop
      vertex   -3.538033e+001 5.209467e+001 3.839031e-015
      vertex   -4.050000e+001 4.750000e+001 2.775558e-015
      vertex   -3.540221e+001 5.230286e+001 3.850263e-015
    endloop
  endfacet
  facet normal 1.349908e-016 8.104273e-017 -1.000000e+000
    outer loop
      vertex   -3.538033e+001 5.209467e+001 3.839031e-015
      vertex   -3.533680e+001 5.188990e+001 3.828311e-015
      vertex   -4.050000e+001 4.750000e+001 2.775558e-015
    endloop
  endfacet
  facet normal 1.259995e-016 9.161795e-017 -1.000000e+000
    outer loop
      vertex   -4.050000e+001 4.750000e+001 2.775558e-015
      vertex   -3.533680e+001 5.188990e+001 3.828311e-015
      vertex   -3.527211e+001 5.169080e+001 3.818221e-015
    endloop
  endfacet
  facet normal 1.181012e-016 1.014708e-016 -1.000000e+000
    outer loop
      vertex   -3.518696e+001 5.149955e+001 3.808872e-015
      vertex   -4.050000e+001 4.750000e+001 2.775558e-015
      vertex   -3.527211e+001 5.169080e+001 3.818221e-015
    endloop
  endfacet
  facet normal 1.109447e-016 1.109775e-016 -1.000000e+000
    outer loop
      vertex   -3.518696e+001 5.149955e+001 3.808872e-015
      vertex   -3.508229e+001 5.131826e+001 3.800364e-015
      vertex   -4.050000e+001 4.750000e+001 2.775558e-015
    endloop
  endfacet
  facet normal 1.042641e-016 1.204567e-016 -1.000000e+000
    outer loop
      vertex   -4.050000e+001 4.750000e+001 2.775558e-015
      vertex   -3.508229e+001 5.131826e+001 3.800364e-015
      vertex   -3.495924e+001 5.114889e+001 3.792793e-015
    endloop
  endfacet
  facet normal 9.783899e-017 1.302130e-016 -1.000000e+000
    outer loop
      vertex   -3.481916e+001 5.099332e+001 3.786241e-015
      vertex   -4.050000e+001 4.750000e+001 2.775558e-015
      vertex   -3.495924e+001 5.114889e+001 3.792793e-015
    endloop
  endfacet
  facet normal 9.146664e-017 1.405757e-016 -1.000000e+000
    outer loop
      vertex   -3.481916e+001 5.099332e+001 3.786241e-015
      vertex   -3.466359e+001 5.085324e+001 3.780779e-015
      vertex   -4.050000e+001 4.750000e+001 2.775558e-015
    endloop
  endfacet
  facet normal 8.493583e-017 1.519428e-016 -1.000000e+000
    outer loop
      vertex   -4.050000e+001 4.750000e+001 2.775558e-015
      vertex   -3.466359e+001 5.085324e+001 3.780779e-015
      vertex   -3.449423e+001 5.073019e+001 3.776467e-015
    endloop
  endfacet
  facet normal 7.799721e-017 1.648435e-016 -1.000000e+000
    outer loop
      vertex   -3.431293e+001 5.062552e+001 3.773354e-015
      vertex   -4.050000e+001 4.750000e+001 2.775558e-015
      vertex   -3.449423e+001 5.073019e+001 3.776467e-015
    endloop
  endfacet
  facet normal 7.031911e-017 1.800425e-016 -1.000000e+000
    outer loop
      vertex   -3.431293e+001 5.062552e+001 3.773354e-015
      vertex   -3.412169e+001 5.054037e+001 3.771471e-015
      vertex   -4.050000e+001 4.750000e+001 2.775558e-015
    endloop
  endfacet
  facet normal 6.140980e-017 1.987331e-016 -1.000000e+000
    outer loop
      vertex   -4.050000e+001 4.750000e+001 2.775558e-015
      vertex   -3.412169e+001 5.054037e+001 3.771471e-015
      vertex   -3.392259e+001 5.047568e+001 3.770842e-015
    endloop
  endfacet
  facet normal 5.046103e-017 2.229342e-016 -1.000000e+000
    outer loop
      vertex   -3.371782e+001 5.043216e+001 3.771471e-015
      vertex   -4.050000e+001 4.750000e+001 2.775558e-015
      vertex   -3.392259e+001 5.047568e+001 3.770842e-015
    endloop
  endfacet
  facet normal 3.598926e-017 2.564078e-016 -1.000000e+000
    outer loop
      vertex   -3.371782e+001 5.043216e+001 3.771471e-015
      vertex   -3.350962e+001 5.041028e+001 3.773354e-015
      vertex   -4.050000e+001 4.750000e+001 2.775558e-015
    endloop
  endfacet
  facet normal 1.487417e-017 3.071255e-016 -1.000000e+000
    outer loop
      vertex   -4.050000e+001 4.750000e+001 2.775558e-015
      vertex   -3.350962e+001 5.041028e+001 3.773354e-015
      vertex   -3.330028e+001 5.041028e+001 3.776467e-015
    endloop
  endfacet
  facet normal 1.130861e-016 -8.789131e-016 -1.000000e+000
    outer loop
      vertex   -2.550000e+001 4.750000e+001 7.216450e-015
      vertex   -3.330028e+001 5.041028e+001 3.776467e-015
      vertex   -3.309208e+001 5.043216e+001 3.780779e-015
    endloop
  endfacet
  facet normal 1.778491e-016 -7.112257e-016 -1.000000e+000
    outer loop
      vertex   -3.288731e+001 5.047568e+001 3.786241e-015
      vertex   -2.550000e+001 4.750000e+001 7.216450e-015
      vertex   -3.309208e+001 5.043216e+001 3.780779e-015
    endloop
  endfacet
  facet normal 2.255362e-016 -5.928398e-016 -1.000000e+000
    outer loop
      vertex   -3.288731e+001 5.047568e+001 3.786241e-015
      vertex   -3.268821e+001 5.054037e+001 3.792793e-015
      vertex   -2.550000e+001 4.750000e+001 7.216450e-015
    endloop
  endfacet
  facet normal 2.635373e-016 -5.029954e-016 -1.000000e+000
    outer loop
      vertex   -2.550000e+001 4.750000e+001 7.216450e-015
      vertex   -3.268821e+001 5.054037e+001 3.792793e-015
      vertex   -3.249697e+001 5.062552e+001 3.800364e-015
    endloop
  endfacet
  facet normal 2.957254e-016 -4.309374e-016 -1.000000e+000
    outer loop
      vertex   -3.231567e+001 5.073019e+001 3.808872e-015
      vertex   -2.550000e+001 4.750000e+001 7.216450e-015
      vertex   -3.249697e+001 5.062552e+001 3.800364e-015
    endloop
  endfacet
  facet normal 3.243770e-016 -3.704829e-016 -1.000000e+000
    outer loop
      vertex   -3.231567e+001 5.073019e+001 3.808872e-015
      vertex   -3.214631e+001 5.085324e+001 3.818221e-015
      vertex   -2.550000e+001 4.750000e+001 7.216450e-015
    endloop
  endfacet
  facet normal 3.509742e-016 -3.177657e-016 -1.000000e+000
    outer loop
      vertex   -2.550000e+001 4.750000e+001 7.216450e-015
      vertex   -3.214631e+001 5.085324e+001 3.818221e-015
      vertex   -3.199074e+001 5.099332e+001 3.828311e-015
    endloop
  endfacet
  facet normal 3.765868e-016 -2.701764e-016 -1.000000e+000
    outer loop
      vertex   -3.185066e+001 5.114889e+001 3.839031e-015
      vertex   -2.550000e+001 4.750000e+001 7.216450e-015
      vertex   -3.199074e+001 5.099332e+001 3.828311e-015
    endloop
  endfacet
  facet normal 4.020787e-016 -2.258094e-016 -1.000000e+000
    outer loop
      vertex   -3.185066e+001 5.114889e+001 3.839031e-015
      vertex   -3.172761e+001 5.131826e+001 3.850263e-015
      vertex   -2.550000e+001 4.750000e+001 7.216450e-015
    endloop
  endfacet
  facet normal 4.282375e-016 -1.831443e-016 -1.000000e+000
    outer loop
      vertex   -2.550000e+001 4.750000e+001 7.216450e-015
      vertex   -3.172761e+001 5.131826e+001 3.850263e-015
      vertex   -3.162294e+001 5.149955e+001 3.861883e-015
    endloop
  endfacet
  facet normal 4.558744e-016 -1.408348e-016 -1.000000e+000
    outer loop
      vertex   -3.153779e+001 5.169080e+001 3.873766e-015
      vertex   -2.550000e+001 4.750000e+001 7.216450e-015
      vertex   -3.162294e+001 5.149955e+001 3.861883e-015
    endloop
  endfacet
  facet normal 4.859236e-016 -9.754210e-017 -1.000000e+000
    outer loop
      vertex   -3.153779e+001 5.169080e+001 3.873766e-015
      vertex   -3.147310e+001 5.188990e+001 3.885781e-015
      vertex   -2.550000e+001 4.750000e+001 7.216450e-015
    endloop
  endfacet
  facet normal 5.195675e-016 -5.176472e-017 -1.000000e+000
    outer loop
      vertex   -2.550000e+001 4.750000e+001 7.216450e-015
      vertex   -3.147310e+001 5.188990e+001 3.885781e-015
      vertex   -3.142957e+001 5.209467e+001 3.897795e-015
    endloop
  endfacet
  facet normal 5.584246e-016 -1.618299e-018 -1.000000e+000
    outer loop
      vertex   -3.140769e+001 5.230286e+001 3.909678e-015
      vertex   -2.550000e+001 4.750000e+001 7.216450e-015
      vertex   -3.142957e+001 5.209467e+001 3.897795e-015
    endloop
  endfacet
  facet normal 6.048699e-016 5.551115e-017 -1.000000e+000
    outer loop
      vertex   -3.140769e+001 5.230286e+001 3.909678e-015
      vertex   -3.140769e+001 5.251221e+001 3.921299e-015
      vertex   -2.550000e+001 4.750000e+001 7.216450e-015
    endloop
  endfacet
  facet normal 5.577731e-016 0.000000e+000 -1.000000e+000
    outer loop
      vertex   -2.550000e+001 4.750000e+001 7.216450e-015
      vertex   -3.140769e+001 5.251221e+001 3.921299e-015
      vertex   -2.550000e+001 5.750000e+001 7.216450e-015
    endloop
  endfacet
  facet normal 4.704764e-016 1.033969e-016 -1.000000e+000
    outer loop
      vertex   -2.550000e+001 5.750000e+001 7.216450e-015
      vertex   -3.140769e+001 5.251221e+001 3.921299e-015
      vertex   -3.142957e+001 5.272040e+001 3.932530e-015
    endloop
  endfacet
  facet normal 4.367873e-016 1.451916e-016 -1.000000e+000
    outer loop
      vertex   -3.147310e+001 5.292517e+001 3.943250e-015
      vertex   -2.550000e+001 5.750000e+001 7.216450e-015
      vertex   -3.142957e+001 5.272040e+001 3.932530e-015
    endloop
  endfacet
  facet normal 4.077130e-016 1.831522e-016 -1.000000e+000
    outer loop
      vertex   -3.147310e+001 5.292517e+001 3.943250e-015
      vertex   -3.153779e+001 5.312427e+001 3.953340e-015
      vertex   -2.550000e+001 5.750000e+001 7.216450e-015
    endloop
  endfacet
  facet normal 3.818169e-016 2.188846e-016 -1.000000e+000
    outer loop
      vertex   -2.550000e+001 5.750000e+001 7.216450e-015
      vertex   -3.153779e+001 5.312427e+001 3.953340e-015
      vertex   -3.162294e+001 5.331552e+001 3.962690e-015
    endloop
  endfacet
  facet normal 3.580587e-016 2.536488e-016 -1.000000e+000
    outer loop
      vertex   -3.172761e+001 5.349681e+001 3.971197e-015
      vertex   -2.550000e+001 5.750000e+001 7.216450e-015
      vertex   -3.162294e+001 5.331552e+001 3.962690e-015
    endloop
  endfacet
  facet normal 3.356240e-016 2.885496e-016 -1.000000e+000
    outer loop
      vertex   -3.172761e+001 5.349681e+001 3.971197e-015
      vertex   -3.185066e+001 5.366618e+001 3.978768e-015
      vertex   -2.550000e+001 5.750000e+001 7.216450e-015
    endloop
  endfacet
  facet normal 3.138139e-016 3.246777e-016 -1.000000e+000
    outer loop
      vertex   -2.550000e+001 5.750000e+001 7.216450e-015
      vertex   -3.185066e+001 5.366618e+001 3.978768e-015
      vertex   -3.199074e+001 5.382175e+001 3.985320e-015
    endloop
  endfacet
  facet normal 2.919584e-016 3.632444e-016 -1.000000e+000
    outer loop
      vertex   -3.214631e+001 5.396183e+001 3.990782e-015
      vertex   -2.550000e+001 5.750000e+001 7.216450e-015
      vertex   -3.199074e+001 5.382175e+001 3.985320e-015
    endloop
  endfacet
  facet normal 2.693335e-016 4.057443e-016 -1.000000e+000
    outer loop
      vertex   -3.214631e+001 5.396183e+001 3.990782e-015
      vertex   -3.231567e+001 5.408488e+001 3.995094e-015
      vertex   -2.550000e+001 5.750000e+001 7.216450e-015
    endloop
  endfacet
  facet normal 2.450554e-016 4.541968e-016 -1.000000e+000
    outer loop
      vertex   -2.550000e+001 5.750000e+001 7.216450e-015
      vertex   -3.231567e+001 5.408488e+001 3.995094e-015
      vertex   -3.249697e+001 5.418955e+001 3.998208e-015
    endloop
  endfacet
  facet normal 2.179179e-016 5.115547e-016 -1.000000e+000
    outer loop
      vertex   -3.268821e+001 5.427470e+001 4.000090e-015
      vertex   -2.550000e+001 5.750000e+001 7.216450e-015
      vertex   -3.249697e+001 5.418955e+001 3.998208e-015
    endloop
  endfacet
  facet normal 1.860956e-016 5.824767e-016 -1.000000e+000
    outer loop
      vertex   -3.268821e+001 5.427470e+001 4.000090e-015
      vertex   -3.288731e+001 5.433939e+001 4.000719e-015
      vertex   -2.550000e+001 5.750000e+001 7.216450e-015
    endloop
  endfacet
  facet normal 1.465372e-016 6.749368e-016 -1.000000e+000
    outer loop
      vertex   -2.550000e+001 5.750000e+001 7.216450e-015
      vertex   -3.288731e+001 5.433939e+001 4.000719e-015
      vertex   -3.309208e+001 5.438291e+001 4.000090e-015
    endloop
  endfacet
  facet normal 9.354434e-017 8.040078e-016 -1.000000e+000
    outer loop
      vertex   -3.330028e+001 5.440479e+001 3.998208e-015
      vertex   -2.550000e+001 5.750000e+001 7.216450e-015
      vertex   -3.309208e+001 5.438291e+001 4.000090e-015
    endloop
  endfacet
  facet normal 2.960595e-016 2.936463e-016 -1.000000e+000
    outer loop
      vertex   -3.330028e+001 5.440479e+001 3.998208e-015
      vertex   -4.050000e+001 5.750000e+001 2.775558e-015
      vertex   -2.550000e+001 5.750000e+001 7.216450e-015
    endloop
  endfacet
  facet normal 1.487417e-017 -3.604154e-016 -1.000000e+000
    outer loop
      vertex   -3.330028e+001 5.440479e+001 3.998208e-015
      vertex   -3.350962e+001 5.440479e+001 3.995094e-015
      vertex   -4.050000e+001 5.750000e+001 2.775558e-015
    endloop
  endfacet
  facet normal 5.020357e-017 -2.806256e-016 -1.000000e+000
    outer loop
      vertex   -4.050000e+001 5.750000e+001 2.775558e-015
      vertex   -3.350962e+001 5.440479e+001 3.995094e-015
      vertex   -3.371782e+001 5.438291e+001 3.990782e-015
    endloop
  endfacet
  facet normal 7.490041e-017 -2.268901e-016 -1.000000e+000
    outer loop
      vertex   -3.392259e+001 5.433939e+001 3.985320e-015
      vertex   -4.050000e+001 5.750000e+001 2.775558e-015
      vertex   -3.371782e+001 5.438291e+001 3.990782e-015
    endloop
  endfacet
  facet normal 9.383129e-017 -1.874939e-016 -1.000000e+000
    outer loop
      vertex   -3.392259e+001 5.433939e+001 3.985320e-015
      vertex   -3.412169e+001 5.427470e+001 3.978768e-015
      vertex   -4.050000e+001 5.750000e+001 2.775558e-015
    endloop
  endfacet
  facet normal 1.093782e-016 -1.567485e-016 -1.000000e+000
    outer loop
      vertex   -4.050000e+001 5.750000e+001 2.775558e-015
      vertex   -3.412169e+001 5.427470e+001 3.978768e-015
      vertex   -3.431293e+001 5.418955e+001 3.971197e-015
    endloop
  endfacet
  facet normal 1.228672e-016 -1.315383e-016 -1.000000e+000
    outer loop
      vertex   -3.449423e+001 5.408488e+001 3.962690e-015
      vertex   -4.050000e+001 5.750000e+001 2.775558e-015
      vertex   -3.431293e+001 5.418955e+001 3.971197e-015
    endloop
  endfacet
  facet normal 1.351193e-016 -1.099920e-016 -1.000000e+000
    outer loop
      vertex   -3.449423e+001 5.408488e+001 3.962690e-015
      vertex   -3.466359e+001 5.396183e+001 3.953340e-015
      vertex   -4.050000e+001 5.750000e+001 2.775558e-015
    endloop
  endfacet
  facet normal 1.466974e-016 -9.089334e-017 -1.000000e+000
    outer loop
      vertex   -4.050000e+001 5.750000e+001 2.775558e-015
      vertex   -3.466359e+001 5.396183e+001 3.953340e-015
      vertex   -3.481916e+001 5.382175e+001 3.943250e-015
    endloop
  endfacet
  facet normal 1.580316e-016 -7.338835e-017 -1.000000e+000
    outer loop
      vertex   -3.495924e+001 5.366618e+001 3.932530e-015
      vertex   -4.050000e+001 5.750000e+001 2.775558e-015
      vertex   -3.481916e+001 5.382175e+001 3.943250e-015
    endloop
  endfacet
  facet normal 1.694920e-016 -5.682531e-017 -1.000000e+000
    outer loop
      vertex   -3.495924e+001 5.366618e+001 3.932530e-015
      vertex   -3.508229e+001 5.349681e+001 3.921299e-015
      vertex   -4.050000e+001 5.750000e+001 2.775558e-015
    endloop
  endfacet
  facet normal 2.130974e-016 0.000000e+000 -1.000000e+000
    outer loop
      vertex   -4.050000e+001 5.750000e+001 2.775558e-015
      vertex   -3.540221e+001 5.251221e+001 3.861883e-015
      vertex   -4.050000e+001 4.750000e+001 2.775558e-015
    endloop
  endfacet
  facet normal 2.960595e-016 -3.884980e-016 -1.000000e+000
    outer loop
      vertex   -4.050000e+001 4.750000e+001 2.775558e-015
      vertex   -3.330028e+001 5.041028e+001 3.776467e-015
      vertex   -2.550000e+001 4.750000e+001 7.216450e-015
    endloop
  endfacet
  facet normal 1.000000e+000 0.000000e+000 0.000000e+000
    outer loop
      vertex   -2.550000e+001 5.750000e+001 7.216450e-015
      vertex   -2.550000e+001 5.500000e+001 4.000000e+000
      vertex   -2.550000e+001 4.750000e+001 7.216450e-015
    endloop
  endfacet
  facet normal 1.000000e+000 0.000000e+000 -0.000000e+000
    outer loop
      vertex   -2.550000e+001 4.750000e+001 7.216450e-015
      vertex   -2.550000e+001 5.500000e+001 4.000000e+000
      vertex   -2.550000e+001 5.000000e+001 4.000000e+000
    endloop
  endfacet
  facet normal -1.000000e+000 0.000000e+000 0.000000e+000
    outer loop
      vertex   -4.050000e+001 5.750000e+001 2.775558e-015
      vertex   -4.050000e+001 4.750000e+001 2.775558e-015
      vertex   -4.050000e+001 5.500000e+001 4.000000e+000
    endloop
  endfacet
  facet normal -1.000000e+000 -0.000000e+000 0.000000e+000
    outer loop
      vertex   -4.050000e+001 5.500000e+001 4.000000e+000
      vertex   -4.050000e+001 4.750000e+001 2.775558e-015
      vertex   -4.050000e+001 5.000000e+001 4.000000e+000
    endloop
  endfacet
endsolid
